<?xml version="1.0" standalone="no"?>
<!DOCTYPE svg PUBLIC "-//W3C//DTD SVG 20010904//EN"
 "http://www.w3.org/TR/2001/REC-SVG-20010904/DTD/svg10.dtd">
<svg version="1.0" xmlns="http://www.w3.org/2000/svg"
 width="360.000000pt" height="360.000000pt" viewBox="0 0 360.000000 360.000000"
 preserveAspectRatio="xMidYMid meet">

<g transform="translate(0.000000,360.000000) scale(0.100000,-0.100000)"
fill="#4381EF" stroke="none">
<path d="M1719 3297 c-54 -36 -69 -77 -69 -189 l0 -96 -52 -7 c-29 -4 -89 -18
-134 -31 -427 -123 -769 -502 -845 -938 l-11 -66 -103 0 c-89 0 -106 -3 -136
-23 -67 -44 -88 -135 -46 -197 43 -64 67 -74 182 -78 l103 -4 12 -65 c6 -35
25 -106 42 -156 137 -410 473 -710 893 -798 50 -10 91 -19 93 -19 1 0 2 -44 2
-99 0 -107 13 -141 72 -184 38 -29 117 -29 155 -1 60 44 73 78 73 185 0 111
-13 97 105 120 452 87 838 484 925 951 l12 66 103 4 c114 3 139 14 183 78 41
62 20 153 -47 197 -30 20 -47 23 -136 23 l-103 0 -11 66 c-15 82 -55 210 -92
292 -72 160 -228 348 -384 465 -135 101 -350 191 -502 212 l-53 7 0 96 c0 72
-4 106 -18 132 -25 50 -75 80 -132 80 -32 0 -58 -7 -81 -23z m319 -606 c448
-129 727 -568 648 -1019 -70 -400 -387 -697 -795 -743 -178 -21 -377 21 -540
114 -87 49 -224 175 -287 263 -55 77 -106 186 -136 290 -19 67 -22 102 -22
229 1 133 4 160 28 239 50 166 117 279 235 396 123 122 277 206 446 244 100
22 323 15 423 -13z"/>
<path d="M1645 2401 c-320 -91 -506 -409 -425 -725 28 -112 73 -190 160 -276
122 -122 253 -175 430 -174 270 2 503 186 570 450 82 320 -111 645 -435 729
-78 20 -223 18 -300 -4z m258 -297 c61 -21 132 -84 164 -147 101 -200 -47
-434 -272 -431 -117 1 -220 67 -268 173 -33 71 -31 189 5 257 32 62 104 127
161 148 56 19 153 20 210 0z"/>
</g>
</svg>
